<svg width="49" height="48" viewBox="0 0 49 48" fill="none" xmlns="http://www.w3.org/2000/svg">
<g clip-path="url(#clip0_883_11832)">
<g clip-path="url(#clip1_883_11832)">
<path d="M42.752 12H6.75195C4.55195 12 2.75195 13.8 2.75195 16V32C2.75195 34.2 4.55195 36 6.75195 36H42.752C44.952 36 46.752 34.2 46.752 32V16C46.752 13.8 44.952 12 42.752 12ZM42.752 32H6.75195V16H42.752V32ZM12.752 30H16.752V26H20.752V22H16.752V18H12.752V22H8.75195V26H12.752V30Z" fill="#535558"/>
<path d="M29.752 30C31.4088 30 32.752 28.6569 32.752 27C32.752 25.3431 31.4088 24 29.752 24C28.0951 24 26.752 25.3431 26.752 27C26.752 28.6569 28.0951 30 29.752 30Z" fill="#535558"/>
<path d="M37.752 24C39.4088 24 40.752 22.6569 40.752 21C40.752 19.3431 39.4088 18 37.752 18C36.0951 18 34.752 19.3431 34.752 21C34.752 22.6569 36.0951 24 37.752 24Z" fill="#535558"/>
</g>
</g>
<defs>
<clipPath id="clip0_883_11832">
<rect width="48" height="48" fill="white" transform="translate(0.941895)"/>
</clipPath>
<clipPath id="clip1_883_11832">
<rect width="48" height="48" fill="white" transform="translate(0.751953)"/>
</clipPath>
</defs>
</svg>
